<?xml version="1.0" encoding="UTF-8"?>
<svg id="Layer_1" data-name="Layer 1" xmlns="http://www.w3.org/2000/svg" xmlns:xlink="http://www.w3.org/1999/xlink" viewBox="0 0 2000 1500">
  <defs>
    <style>
      .cls-1 {
        fill: #f9a533;
      }

      .cls-2 {
        mask: url(#mask-1);
      }

      .cls-3 {
        fill: #36495d;
      }

      .cls-4 {
        fill: #006fcf;
      }

      .cls-5 {
        fill: #fff;
      }

      .cls-6 {
        fill: #0066b2;
      }

      .cls-7 {
        mask: url(#mask);
      }

      .cls-8 {
        fill: #f89e1c;
      }

      .cls-9 {
        fill: #f16522;
      }

      .cls-10 {
        fill: #e41b24;
      }

      .cls-11 {
        fill: #253b80;
      }

      .cls-12 {
        fill: #f7f7f7;
      }
    </style>
    <mask id="mask" x="1411.58" y="690.69" width="322.3" height="131.98" maskUnits="userSpaceOnUse">
      <g id="bluebox-55x54-b">
        <polygon id="bluebox-55x54-a" class="cls-5" points="1411.58 690.69 1411.58 822.67 1733.88 822.67 1733.88 690.69 1411.58 690.69"/>
      </g>
    </mask>
    <mask id="mask-1" x="1475.15" y="775.53" width="258.95" height="37.97" maskUnits="userSpaceOnUse">
      <g id="bluebox-55x54-d">
        <polygon id="bluebox-55x54-c" class="cls-5" points="1734.1 813.5 1734.1 775.53 1475.15 775.53 1475.15 813.5 1734.1 813.5"/>
      </g>
    </mask>
  </defs>
  <rect class="cls-5" width="2000" height="1500"/>
  <rect class="cls-11" x="264.62" y="636.85" width="322.52" height="227.12" rx="29.88" ry="29.88"/>
  <rect class="cls-6" x="646.94" y="636.85" width="322.52" height="227.12" rx="29.88" ry="29.88"/>
  <rect class="cls-3" x="1029.26" y="636.85" width="322.52" height="227.12" rx="29.88" ry="29.88"/>
  <rect class="cls-4" x="1411.58" y="636.85" width="322.52" height="227.12" rx="29.88" ry="29.88"/>
  <g>
    <path class="cls-5" d="M342.06,736.77c-.96,6.3-5.78,6.3-10.44,6.3h-2.65l1.86-11.77c.11-.71.73-1.24,1.45-1.24h1.22c3.17,0,6.17,0,7.71,1.81.92,1.08,1.2,2.68.85,4.9ZM340.04,720.32h-17.57c-1.2,0-2.22.87-2.41,2.06l-7.11,45.06c-.14.89.55,1.69,1.45,1.69h8.39c1.2,0,2.22-.87,2.41-2.06l1.92-12.15c.18-1.19,1.21-2.06,2.41-2.06h5.56c11.57,0,18.25-5.6,20-16.7.79-4.86.03-8.67-2.24-11.34-2.5-2.93-6.93-4.49-12.81-4.49Z"/>
    <path class="cls-5" d="M380.83,752.94c-.81,4.81-4.63,8.03-9.49,8.03-2.44,0-4.4-.78-5.65-2.27-1.24-1.47-1.72-3.57-1.32-5.91.76-4.77,4.64-8.1,9.43-8.1,2.39,0,4.33.79,5.61,2.29,1.28,1.51,1.79,3.63,1.42,5.95ZM392.56,736.57h-8.41c-.72,0-1.34.52-1.45,1.24l-.37,2.35-.59-.85c-1.82-2.64-5.88-3.53-9.94-3.53-9.3,0-17.24,7.04-18.79,16.92-.8,4.93.34,9.64,3.13,12.93,2.56,3.02,6.23,4.28,10.6,4.28,7.49,0,11.65-4.82,11.65-4.82l-.38,2.34c-.14.89.55,1.7,1.44,1.7h7.58c1.2,0,2.22-.87,2.41-2.06l4.55-28.8c.14-.89-.54-1.69-1.44-1.69Z"/>
    <path class="cls-5" d="M437.37,736.57h-8.46c-.81,0-1.56.4-2.02,1.07l-11.66,17.18-4.94-16.51c-.31-1.03-1.26-1.74-2.34-1.74h-8.31c-1.01,0-1.71.99-1.39,1.94l9.31,27.33-8.76,12.36c-.69.97,0,2.31,1.19,2.31h8.44c.8,0,1.55-.39,2.01-1.05l28.12-40.59c.67-.97-.02-2.3-1.2-2.3Z"/>
    <path class="cls-5" d="M467.39,736.77c-.96,6.3-5.78,6.3-10.44,6.3h-2.65l1.86-11.77c.11-.71.72-1.24,1.44-1.24h1.22c3.17,0,6.17,0,7.71,1.81.92,1.08,1.2,2.68.85,4.9ZM465.36,720.32h-17.57c-1.2,0-2.22.87-2.41,2.06l-7.11,45.06c-.14.89.55,1.69,1.44,1.69h9.02c.84,0,1.55-.61,1.69-1.44l2.02-12.77c.19-1.19,1.21-2.06,2.41-2.06h5.56c11.58,0,18.25-5.6,20-16.7.79-4.86.03-8.67-2.24-11.34-2.49-2.93-6.92-4.49-12.8-4.49Z"/>
    <path class="cls-5" d="M506.15,752.94c-.81,4.81-4.63,8.03-9.49,8.03-2.44,0-4.4-.78-5.65-2.27-1.24-1.47-1.71-3.57-1.32-5.91.76-4.77,4.64-8.1,9.43-8.1,2.39,0,4.33.79,5.61,2.29,1.29,1.51,1.8,3.63,1.42,5.95ZM517.88,736.57h-8.41c-.72,0-1.34.52-1.44,1.24l-.37,2.35-.59-.85c-1.82-2.64-5.88-3.53-9.94-3.53-9.3,0-17.24,7.04-18.78,16.92-.8,4.93.34,9.64,3.13,12.93,2.57,3.02,6.23,4.28,10.6,4.28,7.49,0,11.65-4.82,11.65-4.82l-.38,2.34c-.14.89.55,1.7,1.45,1.7h7.58c1.2,0,2.22-.87,2.41-2.06l4.55-28.8c.14-.89-.55-1.69-1.45-1.69Z"/>
    <path class="cls-5" d="M527.8,721.55l-7.21,45.88c-.14.89.55,1.69,1.44,1.69h7.25c1.2,0,2.23-.87,2.41-2.06l7.11-45.05c.14-.89-.55-1.69-1.44-1.69h-8.12c-.72,0-1.33.53-1.44,1.24Z"/>
  </g>
  <g>
    <g>
      <polygon class="cls-5" points="794.51 785.99 777.71 785.99 788.21 721.47 805.01 721.47 794.51 785.99"/>
      <path class="cls-5" d="M763.58,721.47l-16.02,44.38-1.89-9.56h0s-5.65-29.01-5.65-29.01c0,0-.68-5.81-7.97-5.81h-26.47l-.31,1.09s8.1,1.68,17.57,7.38l14.59,56.05h17.5l26.73-64.52h-18.08Z"/>
      <path class="cls-5" d="M895.71,785.99h15.42l-13.45-64.52h-13.51c-6.24,0-7.75,4.81-7.75,4.81l-25.05,59.71h17.51l3.5-9.58h21.35l1.97,9.58ZM877.22,763.17l8.83-24.15,4.97,24.15h-13.79Z"/>
      <path class="cls-5" d="M852.68,736.98l2.4-13.86s-7.4-2.81-15.11-2.81c-8.34,0-28.13,3.65-28.13,21.36,0,16.67,23.23,16.88,23.23,25.63s-20.84,7.19-27.72,1.67l-2.5,14.48s7.5,3.65,18.96,3.65,28.76-5.94,28.76-22.09-23.44-18.34-23.44-25.63,16.36-6.36,23.55-2.4Z"/>
    </g>
    <path class="cls-1" d="M745.67,756.29l-5.65-29.01s-.68-5.81-7.97-5.81h-26.47l-.31,1.09s12.73,2.64,24.93,12.52c11.67,9.44,15.47,21.21,15.47,21.21Z"/>
  </g>
  <g>
    <rect class="cls-9" x="1163.42" y="701.73" width="54.18" height="97.37"/>
    <path class="cls-10" d="M1166.87,750.41c0-19.75,9.25-37.34,23.65-48.68-10.54-8.29-23.82-13.24-38.27-13.24-34.2,0-61.92,27.73-61.92,61.93s27.72,61.93,61.92,61.93c14.45,0,27.73-4.95,38.27-13.24-14.4-11.34-23.65-28.93-23.65-48.68"/>
    <path class="cls-8" d="M1290.71,750.41c0,34.2-27.72,61.93-61.92,61.93-14.45,0-27.73-4.95-38.27-13.24,14.4-11.34,23.65-28.93,23.65-48.68s-9.25-37.34-23.65-48.68c10.53-8.29,23.82-13.24,38.27-13.24,34.2,0,61.92,27.72,61.92,61.92M1284.8,788.78v-1.99h.8v-.4h-2.05v.4h.8v1.99h.44ZM1288.78,788.78v-2.4h-.63l-.72,1.65-.72-1.65h-.63v2.4h.44v-1.81l.68,1.57h.46l.68-1.57v1.82h.44Z"/>
  </g>
  <g>
    <g class="cls-7">
      <path class="cls-12" d="M1694.39,747h24.19v-56.3h-25.82v9l-5.75-9h-22.51v11.39l-5.04-11.39h-37.21c-1.79,0-3.53.13-5.22.4-1.44.23-2.84.55-4.19.97-1.06.33-2.09.72-3.08,1.18-1.17.54-2.28,1.15-3.34,1.86v-4.4h-121.45l-3.31,9.82-3.37-9.82h-28.26v11.51l-5.1-11.51h-23.05l-10.31,24.08v32.22h16.33l3.04-8.08h5.75l3.09,8.08h125.62v-8.19l6.29,8.19h34.71v-4.09c.9.58,1.83,1.09,2.77,1.53.95.44,1.92.81,2.9,1.13,1.21.4,2.45.69,3.67.92,2,.36,4,.52,5.89.52h20.77l3.04-8.08h5.75l3.09,8.08h34.82v-8.35l5.26,8.35ZM1733.88,819.2v-52.83h-199.93l-5.1,7.21-5.04-7.21h-57.5v56.3h57.28l4.99-7.32,5.15,7.32h35.85v-12.15h-.38c4.46,0,8.51-.81,12.1-2.14v14.29h25v-8.19l6.29,8.19h108.48c3.12,0,6.05-.53,8.67-1.48,1.48-.54,2.86-1.2,4.13-1.99Z"/>
    </g>
    <g class="cls-2">
      <path class="cls-4" d="M1721.3,805.91h-19.47v7.6h19.2c8.2,0,13.08-4.99,13.08-12.1s-4.39-10.74-11.77-10.74h-8.79c-2.17,0-3.69-1.41-3.69-3.64s1.51-3.8,3.69-3.8h16.49l3.37-7.7h-19.58c-8.19,0-13.07,4.99-13.07,11.82s4.61,11.01,11.83,11.01h8.73c2.17,0,3.74,1.41,3.74,3.69s-1.57,3.85-3.74,3.85ZM1685.18,805.91h-19.47v7.6h19.2c8.19,0,13.08-4.99,13.08-12.1s-4.39-10.74-11.77-10.74h-8.79c-2.17,0-3.69-1.41-3.69-3.64s1.52-3.8,3.69-3.8h16.49l3.37-7.7h-19.58c-8.19,0-13.07,4.99-13.07,11.82s4.61,11.01,11.83,11.01h8.73c2.17,0,3.74,1.41,3.74,3.69s-1.57,3.85-3.74,3.85ZM1660.17,783.24v-7.7h-30.38v37.97h30.38v-7.65h-21.26v-7.65h20.77v-7.6h-20.77v-7.38h21.26ZM1609.29,783.29c3.25,0,4.99,2.11,4.99,4.72s-1.74,4.66-4.99,4.66h-10.69v-9.38h10.69ZM1598.61,799.83h4.29l11.34,13.67h11.34l-12.64-14c6.46-1.2,10.3-5.86,10.3-11.93,0-7.11-5.04-12.04-13.13-12.04h-20.61v37.97h9.11v-13.67ZM1575.39,788.28c0,2.55-1.63,4.67-4.83,4.67h-10.9v-9.33h10.9c3.2,0,4.83,2.06,4.83,4.66ZM1550.55,775.53v37.97h9.11v-12.53h11.44c8.3,0,13.45-5.42,13.45-12.74s-5.04-12.69-13.13-12.69h-20.88ZM1537.15,813.5h11.39l-15.24-19.15,15.13-18.82h-11.06l-9.33,12.04-9.27-12.04h-11.39l15.19,18.98-15.13,18.99h11.07l9.33-12.21,9.33,12.21ZM1505.53,783.24v-7.7h-30.38v37.97h30.38v-7.65h-21.26v-7.65h20.77v-7.6h-20.77v-7.38h21.26Z"/>
    </g>
    <path class="cls-4" d="M1681.76,715.1l-.11-3.15,1.9,3.15,14.53,22.73h10.64v-37.97h-8.9v21.97l.11,2.82-1.68-2.82-14.22-21.97h-11.17v37.97h8.89v-22.73ZM1645.42,714.02l2.77-7.11,2.76,7.11,3.37,8.41h-12.21l3.31-8.41ZM1660.49,737.83h10.25l-16.21-37.97h-11.99l-16.27,37.97h9.71l3.2-8.14h18.06l3.25,8.14ZM1620.74,737.83h.49l3.74-8.08h-2.77c-6.24,0-9.93-3.9-9.93-10.63v-.54c0-6.02,3.31-10.52,9.82-10.52h9.87v-8.19h-10.63c-11.72,0-18.12,7.87-18.12,18.66v.65c0,11.28,6.56,18.61,17.52,18.66ZM1588.36,737.83h9.11v-37.97h-9.11v37.97ZM1569.21,707.62c3.25,0,4.99,2.11,4.99,4.72s-1.74,4.66-4.99,4.66h-10.69v-9.38h10.69ZM1558.52,724.16h4.29l11.34,13.67h11.34l-12.64-14c6.46-1.19,10.31-5.86,10.31-11.93,0-7.11-5.05-12.04-13.13-12.04h-20.61v37.97h9.11v-13.67ZM1542.74,707.56v-7.7h-30.38v37.97h30.38v-7.76h-21.26v-7.54h20.77v-7.59h-20.77v-7.38h21.26ZM1467.18,711.9l-.22-10.25,10.52,36.18h8.25l10.52-35.96-.22,9.98v25.98h8.84v-37.97h-16.05l-7.21,26.9-7.27-26.9h-16v37.97h8.84v-25.93ZM1430.89,714.02l2.77-7.11,2.77,7.11,3.36,8.41h-12.2l3.31-8.41ZM1445.97,737.83h10.25l-16.22-37.97h-11.99l-16.27,37.97h9.71l3.2-8.14h18.06l3.25,8.14Z"/>
  </g>
</svg>